<mxfile host="app.diagrams.net" modified="2021-03-31T14:00:41.266Z" agent="5.0 (Windows NT 10.0; Win64; x64) AppleWebKit/537.36 (KHTML, like Gecko) Chrome/89.0.4389.90 Safari/537.36" etag="7SOE4iI8d1B21sSeTqGB" version="14.5.3" type="github">
  <diagram id="0kwZ3Ef6oDOQ0Ywg6Nfw" name="Page-1">
    <mxGraphModel dx="1038" dy="580" grid="1" gridSize="10" guides="1" tooltips="1" connect="1" arrows="1" fold="1" page="1" pageScale="1" pageWidth="827" pageHeight="1169" math="0" shadow="0">
      <root>
        <mxCell id="0" />
        <mxCell id="1" parent="0" />
        <mxCell id="sIxNmV41xf-e-O5Z9cG7-3" value="User" style="shape=umlActor;verticalLabelPosition=bottom;verticalAlign=top;html=1;outlineConnect=0;" vertex="1" parent="1">
          <mxGeometry x="280" y="210" width="30" height="60" as="geometry" />
        </mxCell>
        <mxCell id="sIxNmV41xf-e-O5Z9cG7-4" value="Get popularity of a name over given period" style="ellipse;whiteSpace=wrap;html=1;labelPosition=center;verticalLabelPosition=bottom;align=center;verticalAlign=top;" vertex="1" parent="1">
          <mxGeometry x="570" y="230" width="110" height="40" as="geometry" />
        </mxCell>
        <mxCell id="sIxNmV41xf-e-O5Z9cG7-12" value="" style="endArrow=open;endFill=1;endSize=12;html=1;" edge="1" parent="1">
          <mxGeometry width="160" relative="1" as="geometry">
            <mxPoint x="330" y="250" as="sourcePoint" />
            <mxPoint x="560" y="250" as="targetPoint" />
          </mxGeometry>
        </mxCell>
      </root>
    </mxGraphModel>
  </diagram>
</mxfile>
